<?xml version="1.0" encoding="UTF-8" standalone="no"?>
<!DOCTYPE svg PUBLIC "-//W3C//DTD SVG 1.0//EN" "http://www.w3.org/TR/2001/PR-SVG-20010719/DTD/svg10.dtd">
<svg width="43cm" height="20cm" viewBox="-107 54 859 385" xmlns="http://www.w3.org/2000/svg" xmlns:xlink="http://www.w3.org/1999/xlink">
  <g>
    <rect style="fill: #ffffff" x="120" y="89" width="308" height="305"/>
    <rect style="fill: none; fill-opacity:0; stroke-width: 1; stroke: #000000" x="120" y="89" width="308" height="305"/>
    <rect style="fill: #ffffff" x="120" y="69" width="96.4" height="20"/>
    <rect style="fill: none; fill-opacity:0; stroke-width: 1; stroke: #000000" x="120" y="69" width="96.4" height="20"/>
    <text font-size="12.7998" style="fill: #000000;text-anchor:start;font-family:monospace;font-style:normal;font-weight:normal" x="122" y="84">atzipenekoak</text>
  </g>
  <g>
    <rect style="fill: #ffffff" x="132" y="101" width="279.5" height="28"/>
    <rect style="fill: none; fill-opacity:0; stroke-width: 0.02; stroke: #000000" x="132" y="101" width="279.5" height="28"/>
    <text font-size="16" style="fill: #000000;text-anchor:middle;font-family:sans-serif;font-style:normal;font-weight:700" x="271.75" y="120">Csva</text>
    <rect style="fill: #ffffff" x="132" y="129" width="279.5" height="36"/>
    <rect style="fill: none; fill-opacity:0; stroke-width: 0.02; stroke: #000000" x="132" y="129" width="279.5" height="36"/>
    <text font-size="12.8" style="fill: #000000;text-anchor:start;font-family:monospace;font-style:normal;font-weight:normal" x="134" y="143">+strFileIn: String</text>
    <text font-size="12.8" style="fill: #000000;text-anchor:start;font-family:monospace;font-style:normal;font-weight:normal" x="134" y="159">+strFileOut: String</text>
    <rect style="fill: #ffffff" x="132" y="165" width="279.5" height="68"/>
    <rect style="fill: none; fill-opacity:0; stroke-width: 0.02; stroke: #000000" x="132" y="165" width="279.5" height="68"/>
    <text font-size="12.8" style="fill: #000000;text-anchor:start;font-family:monospace;font-style:normal;font-weight:normal" x="134" y="179">+Csva(fileIn:String)</text>
    <text font-size="12.8" style="fill: #000000;text-anchor:start;font-family:monospace;font-style:normal;font-weight:normal" x="134" y="195">+Csva(fileIn:String,fileOut:String)</text>
    <text font-size="12.8" style="fill: #000000;text-anchor:start;font-family:monospace;font-style:normal;font-weight:normal" x="134" y="211">+irakurri(): Mendiak</text>
    <text font-size="12.8" style="fill: #000000;text-anchor:start;font-family:monospace;font-style:normal;font-weight:normal" x="134" y="227">+idatzi(mendiak:Mendiak): int</text>
  </g>
  <g>
    <rect style="fill: #ffffff" x="134" y="259" width="55.3" height="28"/>
    <rect style="fill: none; fill-opacity:0; stroke-width: 0.02; stroke: #000000" x="134" y="259" width="55.3" height="28"/>
    <text font-size="16" style="fill: #000000;text-anchor:middle;font-family:sans-serif;font-style:normal;font-weight:700" x="161.65" y="278">Xmla</text>
    <rect style="fill: #ffffff" x="134" y="287" width="55.3" height="8"/>
    <rect style="fill: none; fill-opacity:0; stroke-width: 0.02; stroke: #000000" x="134" y="287" width="55.3" height="8"/>
    <rect style="fill: #ffffff" x="134" y="295" width="55.3" height="8"/>
    <rect style="fill: none; fill-opacity:0; stroke-width: 0.02; stroke: #000000" x="134" y="295" width="55.3" height="8"/>
  </g>
  <g>
    <rect style="fill: #ffffff" x="144" y="329" width="58.65" height="28"/>
    <rect style="fill: none; fill-opacity:0; stroke-width: 0.02; stroke: #000000" x="144" y="329" width="58.65" height="28"/>
    <text font-size="16" style="fill: #000000;text-anchor:middle;font-family:sans-serif;font-style:normal;font-weight:700" x="173.325" y="348">Jsona</text>
    <rect style="fill: #ffffff" x="144" y="357" width="58.65" height="8"/>
    <rect style="fill: none; fill-opacity:0; stroke-width: 0.02; stroke: #000000" x="144" y="357" width="58.65" height="8"/>
    <rect style="fill: #ffffff" x="144" y="365" width="58.65" height="8"/>
    <rect style="fill: none; fill-opacity:0; stroke-width: 0.02; stroke: #000000" x="144" y="365" width="58.65" height="8"/>
  </g>
  <g>
    <rect style="fill: #ffffff" x="443.6" y="77.7" width="308" height="360.029"/>
    <rect style="fill: none; fill-opacity:0; stroke-width: 1; stroke: #000000" x="443.6" y="77.7" width="308" height="360.029"/>
    <rect style="fill: #ffffff" x="443.6" y="57.7" width="88.7" height="20"/>
    <rect style="fill: none; fill-opacity:0; stroke-width: 1; stroke: #000000" x="443.6" y="57.7" width="88.7" height="20"/>
    <text font-size="12.7998" style="fill: #000000;text-anchor:start;font-family:monospace;font-style:normal;font-weight:normal" x="445.6" y="72.7">mainklaseak</text>
  </g>
  <g>
    <rect style="fill: #ffffff" x="-105.374" y="75.7" width="208.974" height="305"/>
    <rect style="fill: none; fill-opacity:0; stroke-width: 1; stroke: #000000" x="-105.374" y="75.7" width="208.974" height="305"/>
    <rect style="fill: #ffffff" x="-105.374" y="55.7" width="50.2" height="20"/>
    <rect style="fill: none; fill-opacity:0; stroke-width: 1; stroke: #000000" x="-105.374" y="55.7" width="50.2" height="20"/>
    <text font-size="12.7998" style="fill: #000000;text-anchor:start;font-family:monospace;font-style:normal;font-weight:normal" x="-103.374" y="70.7">pojoak</text>
  </g>
  <g>
    <rect style="fill: #ffffff" x="-78.3744" y="116" width="156.3" height="28"/>
    <rect style="fill: none; fill-opacity:0; stroke-width: 0.02; stroke: #000000" x="-78.3744" y="116" width="156.3" height="28"/>
    <text font-size="16" style="fill: #000000;text-anchor:middle;font-family:sans-serif;font-style:normal;font-weight:700" x="-0.2244" y="135">Mendia</text>
    <rect style="fill: #ffffff" x="-78.3744" y="144" width="156.3" height="68"/>
    <rect style="fill: none; fill-opacity:0; stroke-width: 0.02; stroke: #000000" x="-78.3744" y="144" width="156.3" height="68"/>
    <text font-size="12.8" style="fill: #000000;text-anchor:start;font-family:monospace;font-style:normal;font-weight:normal" x="-76.3744" y="158">-id: int</text>
    <text font-size="12.8" style="fill: #000000;text-anchor:start;font-family:monospace;font-style:normal;font-weight:normal" x="-76.3744" y="174">-mendia: String</text>
    <text font-size="12.8" style="fill: #000000;text-anchor:start;font-family:monospace;font-style:normal;font-weight:normal" x="-76.3744" y="190">-altuera: int</text>
    <text font-size="12.8" style="fill: #000000;text-anchor:start;font-family:monospace;font-style:normal;font-weight:normal" x="-76.3744" y="206">-probintzia: String</text>
    <rect style="fill: #ffffff" x="-78.3744" y="212" width="156.3" height="8"/>
    <rect style="fill: none; fill-opacity:0; stroke-width: 0.02; stroke: #000000" x="-78.3744" y="212" width="156.3" height="8"/>
  </g>
  <g>
    <rect style="fill: #ffffff" x="-93.3744" y="252" width="179.4" height="28"/>
    <rect style="fill: none; fill-opacity:0; stroke-width: 0.02; stroke: #000000" x="-93.3744" y="252" width="179.4" height="28"/>
    <text font-size="16" style="fill: #000000;text-anchor:middle;font-family:sans-serif;font-style:normal;font-weight:700" x="-3.6744" y="271">Mendiak</text>
    <rect style="fill: #ffffff" x="-93.3744" y="280" width="179.4" height="20"/>
    <rect style="fill: none; fill-opacity:0; stroke-width: 0.02; stroke: #000000" x="-93.3744" y="280" width="179.4" height="20"/>
    <text font-size="12.8" style="fill: #000000;text-anchor:start;font-family:monospace;font-style:normal;font-weight:normal" x="-91.3744" y="294">+mendiak: List&lt;Mendia&gt;</text>
    <rect style="fill: #ffffff" x="-93.3744" y="300" width="179.4" height="8"/>
    <rect style="fill: none; fill-opacity:0; stroke-width: 0.02; stroke: #000000" x="-93.3744" y="300" width="179.4" height="8"/>
  </g>
  <g>
    <rect style="fill: #ffffff" x="457.664" y="127.523" width="164" height="28"/>
    <rect style="fill: none; fill-opacity:0; stroke-width: 0.02; stroke: #000000" x="457.664" y="127.523" width="164" height="28"/>
    <text font-size="16" style="fill: #000000;text-anchor:middle;font-family:sans-serif;font-style:normal;font-weight:700" x="539.664" y="146.523">Irakurketak</text>
    <rect style="fill: #ffffff" x="457.664" y="155.523" width="164" height="8"/>
    <rect style="fill: none; fill-opacity:0; stroke-width: 0.02; stroke: #000000" x="457.664" y="155.523" width="164" height="8"/>
    <rect style="fill: #ffffff" x="457.664" y="163.523" width="164" height="20"/>
    <rect style="fill: none; fill-opacity:0; stroke-width: 0.02; stroke: #000000" x="457.664" y="163.523" width="164" height="20"/>
    <text font-size="12.8" style="fill: #000000;text-anchor:start;font-family:monospace;font-style:normal;font-weight:normal" x="459.664" y="177.523">+main(args:String[])</text>
  </g>
  <g>
    <rect style="fill: #ffffff" x="462.55" y="212.752" width="164" height="28"/>
    <rect style="fill: none; fill-opacity:0; stroke-width: 0.02; stroke: #000000" x="462.55" y="212.752" width="164" height="28"/>
    <text font-size="16" style="fill: #000000;text-anchor:middle;font-family:sans-serif;font-style:normal;font-weight:700" x="544.55" y="231.752">CsvtikXmlra</text>
    <rect style="fill: #ffffff" x="462.55" y="240.752" width="164" height="8"/>
    <rect style="fill: none; fill-opacity:0; stroke-width: 0.02; stroke: #000000" x="462.55" y="240.752" width="164" height="8"/>
    <rect style="fill: #ffffff" x="462.55" y="248.752" width="164" height="20"/>
    <rect style="fill: none; fill-opacity:0; stroke-width: 0.02; stroke: #000000" x="462.55" y="248.752" width="164" height="20"/>
    <text font-size="12.8" style="fill: #000000;text-anchor:start;font-family:monospace;font-style:normal;font-weight:normal" x="464.55" y="262.752">+main(args:String[])</text>
  </g>
  <g>
    <rect style="fill: #ffffff" x="462.55" y="291.854" width="164" height="28"/>
    <rect style="fill: none; fill-opacity:0; stroke-width: 0.02; stroke: #000000" x="462.55" y="291.854" width="164" height="28"/>
    <text font-size="16" style="fill: #000000;text-anchor:middle;font-family:sans-serif;font-style:normal;font-weight:700" x="544.55" y="310.854">CsvtikJsonera</text>
    <rect style="fill: #ffffff" x="462.55" y="319.854" width="164" height="8"/>
    <rect style="fill: none; fill-opacity:0; stroke-width: 0.02; stroke: #000000" x="462.55" y="319.854" width="164" height="8"/>
    <rect style="fill: #ffffff" x="462.55" y="327.854" width="164" height="20"/>
    <rect style="fill: none; fill-opacity:0; stroke-width: 0.02; stroke: #000000" x="462.55" y="327.854" width="164" height="20"/>
    <text font-size="12.8" style="fill: #000000;text-anchor:start;font-family:monospace;font-style:normal;font-weight:normal" x="464.55" y="341.854">+main(args:String[])</text>
  </g>
  <g>
    <rect style="fill: #ffffff" x="465.652" y="353.896" width="164" height="28"/>
    <rect style="fill: none; fill-opacity:0; stroke-width: 0.02; stroke: #000000" x="465.652" y="353.896" width="164" height="28"/>
    <text font-size="16" style="fill: #000000;text-anchor:middle;font-family:sans-serif;font-style:normal;font-weight:700" x="547.652" y="372.896">...</text>
    <rect style="fill: #ffffff" x="465.652" y="381.896" width="164" height="8"/>
    <rect style="fill: none; fill-opacity:0; stroke-width: 0.02; stroke: #000000" x="465.652" y="381.896" width="164" height="8"/>
    <rect style="fill: #ffffff" x="465.652" y="389.896" width="164" height="20"/>
    <rect style="fill: none; fill-opacity:0; stroke-width: 0.02; stroke: #000000" x="465.652" y="389.896" width="164" height="20"/>
    <text font-size="12.8" style="fill: #000000;text-anchor:start;font-family:monospace;font-style:normal;font-weight:normal" x="467.652" y="403.896">+main(args:String[])</text>
  </g>
</svg>
